<?xml version="1.0" standalone="no"?><!DOCTYPE svg PUBLIC "-//W3C//DTD SVG 1.1//EN" "http://www.w3.org/Graphics/SVG/1.1/DTD/svg11.dtd"><svg t="1674486917847" class="icon" viewBox="0 0 1024 1024" version="1.1" xmlns="http://www.w3.org/2000/svg" p-id="1616" xmlns:xlink="http://www.w3.org/1999/xlink" width="200" height="200"><path d="M785.92 138.24c-110.08-28.16-215.04 15.36-273.92 94.72-58.88-79.36-163.84-122.88-273.92-94.72-112.64 30.72-189.44 138.24-186.88 256 5.12 261.12 217.6 440.32 437.76 542.72 15.36 7.68 33.28 7.68 48.64 0 220.16-102.4 432.64-281.6 437.76-542.72 0-117.76-74.24-227.84-189.44-256z m-276.48 750.08c-115.2-53.76-273.92-151.04-353.28-299.52h230.4c10.24 0 17.92-5.12 20.48-15.36l25.6-76.8 53.76 199.68c2.56 10.24 12.8 17.92 23.04 17.92s20.48-7.68 23.04-15.36l61.44-158.72 23.04 35.84c5.12 7.68 10.24 10.24 17.92 10.24h53.76c15.36 0 25.6-10.24 25.6-25.6s-10.24-25.6-25.6-25.6h-35.84l-40.96-66.56c-5.12-7.68-15.36-12.8-23.04-12.8-10.24 0-17.92 7.68-20.48 15.36l-51.2 133.12-56.32-204.8c-2.56-10.24-12.8-17.92-23.04-17.92-12.8 0-20.48 7.68-25.6 17.92l-46.08 135.68h-235.52c-15.36-43.52-28.16-89.6-28.16-140.8-2.56-94.72 56.32-186.88 148.48-209.92 87.04-23.04 171.52 7.68 220.16 74.24l23.04 30.72c10.24 12.8 28.16 12.8 35.84 0l23.04-30.72c51.2-69.12 135.68-97.28 222.72-74.24 89.6 25.6 145.92 110.08 145.92 202.24-2.56 266.24-245.76 422.4-407.04 499.2 0 5.12-2.56 5.12-5.12 2.56z" fill="#5C5C66" p-id="1617"></path></svg>